<svg version="1.1" xmlns="http://www.w3.org/2000/svg" width="512" height="512" viewBox="0 0 512 512">
<path fill="white" d="M447.991 192.003c-17.599 0-31.998 14.399-31.998 31.999v127.994c0 17.599 14.399 31.998 31.998 31.998s31.998-14.399 31.998-31.998v-127.995c0-17.599-14.399-31.999-31.998-31.999zM64.008 192.003c-17.599 0-31.998 14.399-31.998 31.999v127.994c0 17.599 14.399 31.998 31.998 31.998s31.999-14.399 31.999-31.998v-127.995c0-17.599-14.4-31.999-31.999-31.999zM112.007 367.995c0 26.509 21.489 47.998 47.998 47.998v0 63.997c0 17.599 14.399 31.998 31.999 31.998s31.999-14.399 31.999-31.998v-63.997h63.997v63.997c0 17.599 14.399 31.998 31.998 31.998s31.998-14.399 31.998-31.998v-63.997c26.509 0 47.998-21.489 47.998-47.998v-175.993h-287.988v175.993z"></path>
<path fill="white" d="M399.102 160.005c-4.858-43.94-29.5-81.892-64.807-104.819l16.012-32.022c3.952-7.902 0.748-17.513-7.154-21.465s-17.514-0.748-21.465 7.155l-16.070 32.142-4.175-1.658c-14.284-4.751-29.56-7.33-45.441-7.33-15.881 0-31.156 2.579-45.442 7.328l-4.174 1.658-16.071-32.139c-3.952-7.904-13.564-11.105-21.465-7.155-7.904 3.952-11.107 13.563-7.155 21.465l16.011 32.022c-35.306 22.925-59.95 60.879-64.808 104.817v16h287.099v-15.999h-0.892zM208.002 128.006c-8.837 0-16-7.163-16-15.999 0-8.823 7.143-15.978 15.964-15.998 0.016 0 0.031 0.001 0.047 0.001 0.009 0 0.018-0.001 0.026-0.001 8.819 0.021 15.962 7.174 15.962 15.998 0 8.835-7.162 15.999-16 15.999zM303.998 128.006c-8.837 0-16-7.163-16-15.999 0-8.823 7.142-15.977 15.962-15.998 0.008 0 0.017 0.001 0.025 0.001 0.016 0 0.032-0.001 0.048-0.001 8.82 0.019 15.964 7.174 15.964 15.998 0 8.835-7.163 15.999-16 15.999z"></path>
</svg>
